HIERARCHY
ROOT Hips
{
	OFFSET 0.000000 89.005402 0.000000
	CHANNELS 6 Xposition Yposition Zposition Xrotation Yrotation Zrotation
	JOINT Spine
	{
		OFFSET 0.116900 10.681000 0.373400
		CHANNELS 3 Xrotation Yrotation Zrotation
		JOINT Spine1
		{
			OFFSET 0.000000 13.840401 0.053500
			CHANNELS 3 Xrotation Yrotation Zrotation
			JOINT Spine2
			{
				OFFSET 0.000000 14.712700 -0.366200
				CHANNELS 3 Xrotation Yrotation Zrotation
				JOINT Neck
				{
					OFFSET 0.000000 35.415497 -3.314200
					CHANNELS 3 Xrotation Yrotation Zrotation
					JOINT Head
					{
						OFFSET 0.000000 16.899200 1.218300
						CHANNELS 3 Xrotation Yrotation Zrotation
						JOINT HeadTop_End
						{
							OFFSET 0.000000 22.206207 2.192500
							CHANNELS 3 Xrotation Yrotation Zrotation
							End Site
							{
								OFFSET 0.000000 22.314178 0.000000
							}
						}
					}
				}
				JOINT LeftShoulder
				{
					OFFSET 12.896400 26.716293 -4.548400
					CHANNELS 3 Xrotation Yrotation Zrotation
					JOINT LeftArm
					{
						OFFSET 19.027000 -4.857010 -1.718400
						CHANNELS 3 Xrotation Yrotation Zrotation
						JOINT LeftForeArm
						{
							OFFSET 24.179897 0.000000 0.000000
							CHANNELS 3 Xrotation Yrotation Zrotation
							JOINT LeftHand
							{
								OFFSET 27.156403 0.000000 0.000000
								CHANNELS 3 Xrotation Yrotation Zrotation
								JOINT LeftHandIndex1
								{
									OFFSET 16.441200 0.000000 0.000000
									CHANNELS 3 Xrotation Yrotation Zrotation
									JOINT LeftHandIndex2
									{
										OFFSET 4.821899 0.000000 0.000000
										CHANNELS 3 Xrotation Yrotation Zrotation
										JOINT LeftHandIndex3
										{
											OFFSET 6.386497 0.000000 0.000000
											CHANNELS 3 Xrotation Yrotation Zrotation
											JOINT LeftHandIndex4
											{
												OFFSET 5.188988 0.000000 0.000000
												CHANNELS 3 Xrotation Yrotation Zrotation
												End Site
												{
													OFFSET -0.178703 5.185913 0.000177
												}
											}
										}
									}
								}
								JOINT LeftHandThumb1
								{
									OFFSET 6.534897 -5.032593 5.900300
									CHANNELS 3 Xrotation Yrotation Zrotation
									JOINT LeftHandThumb2
									{
										OFFSET 3.818176 -2.204422 2.204423
										CHANNELS 3 Xrotation Yrotation Zrotation
										JOINT LeftHandThumb3
										{
											OFFSET 3.252098 -1.877594 1.877601
											CHANNELS 3 Xrotation Yrotation Zrotation
											JOINT LeftHandThumb4
											{
												OFFSET 5.251778 -3.032120 3.032117
												CHANNELS 3 Xrotation Yrotation Zrotation
												End Site
												{
													OFFSET 0.000023 6.780014 0.000000
												}
											}
										}
									}
								}
							}
						}
					}
				}
				JOINT RightShoulder
				{
					OFFSET -12.896300 26.716293 -4.548400
					CHANNELS 3 Xrotation Yrotation Zrotation
					JOINT RightArm
					{
						OFFSET -19.027000 -4.857010 -1.718400
						CHANNELS 3 Xrotation Yrotation Zrotation
						JOINT RightForeArm
						{
							OFFSET -24.179897 0.000000 0.000000
							CHANNELS 3 Xrotation Yrotation Zrotation
							JOINT RightHand
							{
								OFFSET -27.156403 0.000000 0.000000
								CHANNELS 3 Xrotation Yrotation Zrotation
								JOINT RightHandThumb1
								{
									OFFSET -6.591202 -4.852203 5.988100
									CHANNELS 3 Xrotation Yrotation Zrotation
									JOINT RightHandThumb2
									{
										OFFSET -3.818176 -2.204422 2.204423
										CHANNELS 3 Xrotation Yrotation Zrotation
										JOINT RightHandThumb3
										{
											OFFSET -3.252098 -1.877594 1.877601
											CHANNELS 3 Xrotation Yrotation Zrotation
											JOINT RightHandThumb4
											{
												OFFSET -5.251778 -3.032120 3.032117
												CHANNELS 3 Xrotation Yrotation Zrotation
												End Site
												{
													OFFSET -0.000023 6.780014 0.000000
												}
											}
										}
									}
								}
								JOINT RightHandIndex1
								{
									OFFSET -16.029404 0.000000 0.000000
									CHANNELS 3 Xrotation Yrotation Zrotation
									JOINT RightHandIndex2
									{
										OFFSET -5.213303 0.000000 0.000000
										CHANNELS 3 Xrotation Yrotation Zrotation
										JOINT RightHandIndex3
										{
											OFFSET -6.386528 0.000000 0.000000
											CHANNELS 3 Xrotation Yrotation Zrotation
											JOINT RightHandIndex4
											{
												OFFSET -5.189026 0.000000 0.000000
												CHANNELS 3 Xrotation Yrotation Zrotation
												End Site
												{
													OFFSET 0.236702 5.183624 0.001972
												}
											}
										}
									}
								}
							}
						}
					}
				}
			}
		}
	}
	JOINT LeftUpLeg
	{
		OFFSET 14.073000 -7.904099 -1.463000
		CHANNELS 3 Xrotation Yrotation Zrotation
		JOINT LeftLeg
		{
			OFFSET -0.109806 -34.073280 4.093200
			CHANNELS 3 Xrotation Yrotation Zrotation
			JOINT LeftFoot
			{
				OFFSET 0.109806 -29.899420 -6.319000
				CHANNELS 3 Xrotation Yrotation Zrotation
				JOINT LeftToeBase
				{
					OFFSET 1.551100 -14.988700 20.535801
					CHANNELS 3 Xrotation Yrotation Zrotation
					JOINT LeftToe_End
					{
						OFFSET 0.221200 0.570800 13.248301
						CHANNELS 3 Xrotation Yrotation Zrotation
						End Site
						{
							OFFSET 0.000000 13.262435 0.000000
						}
					}
				}
			}
		}
	}
	JOINT RightUpLeg
	{
		OFFSET -13.839300 -7.904099 -1.463000
		CHANNELS 3 Xrotation Yrotation Zrotation
		JOINT RightLeg
		{
			OFFSET 0.109694 -34.073219 4.093300
			CHANNELS 3 Xrotation Yrotation Zrotation
			JOINT RightFoot
			{
				OFFSET -0.109694 -29.899384 -6.319200
				CHANNELS 3 Xrotation Yrotation Zrotation
				JOINT RightToeBase
				{
					OFFSET -1.551100 -14.988700 20.535801
					CHANNELS 3 Xrotation Yrotation Zrotation
					JOINT RightToe_End
					{
						OFFSET -0.221200 0.570900 13.248299
						CHANNELS 3 Xrotation Yrotation Zrotation
						End Site
						{
							OFFSET 0.000000 13.262440 0.000000
						}
					}
				}
			}
		}
	}
}
MOTION
Frames: 8
Frame Time: 0.033333
1.020344 63.186996 1.400789 16.356577 -6.121866 -5.273708 11.020089 14.937641 -9.370272 2.869496 4.087940 -0.126402 2.861631 4.312292 -0.311450 -0.688863 -2.356464 4.369681 -6.951131 -9.322000 11.106345 -0.000001 -0.000000 -0.000000 1.124718 -1.331167 -15.116535 -9.590839 31.513181 -40.008397 -0.000007 -10.721309 0.000003 15.668210 -19.583483 20.990293 -1.866393 -6.065074 -12.588955 0.237187 1.651681 -16.342788 0.250134 1.695199 -16.786211 -0.000002 -0.000002 -0.000000 -5.459271 -6.700158 3.222132 8.095121 27.603065 1.094095 -10.020031 -14.017837 7.739298 -0.000001 0.000001 -0.000000 2.870348 11.957091 -6.152310 -33.803689 70.877563 6.927843 -0.000333 94.709575 0.000358 17.111792 20.467031 -11.105444 -15.309644 26.930966 3.993216 9.853492 -45.621367 -5.481823 -7.059958 3.100313 -14.195169 -0.000002 0.000000 -0.000002 0.530847 -4.798261 13.845704 0.169907 -1.247758 15.508052 0.169803 -1.247379 15.503206 0.000002 0.000001 0.000002 -86.770593 -0.330165 -0.548942 47.283986 12.992252 1.742300 16.075748 24.600576 11.144716 -4.486125 -0.000004 -0.000007 0.000000 0.000001 0.000000 21.008673 -8.822935 8.239121 41.399003 -13.695107 8.099981 -40.072648 -18.278580 18.629396 -42.282409 0.000001 -0.000000 -0.000000 0.000001 0.000000 
-0.824658 61.352295 2.238792 18.689925 -4.208015 -2.594502 9.922967 13.472097 -9.480685 3.240989 4.231779 -1.998747 3.223383 4.438556 -2.145065 -0.287264 -2.446675 3.683877 -5.678915 -11.262002 13.037602 0.000002 0.000000 -0.000000 0.951821 -1.011473 -15.857894 -11.180832 30.838205 -37.861374 0.000002 -9.136648 -0.000001 9.648376 -13.180938 18.858998 -1.388093 -4.790594 -11.194982 0.199090 1.515776 -14.964326 0.171647 1.409194 -13.889728 0.000000 -0.000001 -0.000001 -7.102931 -5.417574 1.518421 7.834683 25.745888 1.190262 -9.726783 -12.684109 8.377767 0.000000 -0.000001 -0.000000 3.095906 13.108536 -9.431296 -43.730751 66.647292 15.817881 -0.000027 78.570132 0.000019 16.470924 24.276473 -11.834112 -13.770426 24.216441 2.511733 9.323127 -40.947930 -5.079261 -6.809181 1.814205 -14.290591 -0.000000 0.000000 -0.000001 0.411450 -4.461119 12.129122 0.123033 -1.064521 13.185246 0.122956 -1.064191 13.181042 -0.000002 0.000000 -0.000001 -91.119593 1.212402 -1.624301 50.715575 12.622325 1.774961 15.902755 24.376363 9.323260 -4.486126 -0.000015 -0.000007 0.000000 -0.000000 0.000000 18.831429 -9.135646 6.772386 46.360343 -11.776336 8.485019 -38.200445 -21.272252 23.405812 -47.838915 0.000002 0.000007 0.000001 0.000002 0.000001 
-3.158982 60.087700 4.416740 22.277292 -0.801258 -0.116705 8.622648 11.681867 -9.784202 3.502647 4.289117 -4.036003 3.470796 4.475563 -4.145697 0.508953 -2.501388 2.460499 -3.441447 -13.930770 15.811523 0.000000 -0.000000 -0.000000 0.715578 -1.111673 -19.135767 -13.558942 28.709542 -32.770264 0.000002 -9.566566 -0.000007 4.676174 -7.042947 16.534404 -0.935822 -3.364916 -9.670102 0.161115 1.365880 -13.454618 0.101932 1.089141 -10.691442 -0.000002 0.000002 -0.000002 -8.879470 -3.907733 -0.316679 7.548482 23.701412 1.286925 -9.411844 -11.219039 9.071750 -0.000001 0.000002 -0.000001 3.538045 14.612015 -13.517812 -47.241352 59.175652 18.844021 -0.000002 64.377962 -0.000002 16.065647 27.442933 -15.029783 -12.206536 21.175962 1.009935 8.752320 -35.792889 -4.590183 -6.540050 0.393703 -14.388495 -0.000001 0.000000 0.000001 0.299012 -4.083698 10.237165 0.079980 -0.860317 10.622444 0.079930 -0.860050 10.619112 -0.000000 -0.000000 -0.000001 -95.432264 4.179278 -2.627602 54.325590 10.586160 1.810316 14.253647 23.993599 7.608727 -4.486185 -0.000010 -0.000003 0.000000 0.000001 -0.000000 17.030551 -9.577860 5.913177 47.403347 -9.334081 8.768940 -30.857401 -26.049037 29.996978 -56.226397 0.000002 0.000000 -0.000001 0.000002 0.000000 
-5.718740 59.522682 7.564125 26.601311 2.320191 1.863231 7.290805 9.643498 -10.342548 3.871782 4.661608 -6.189361 3.825681 4.835475 -6.258973 1.447366 -2.639886 1.423539 -0.721912 -16.631938 18.784931 0.000001 0.000000 0.000000 0.485476 -1.399852 -24.344252 -16.216488 25.087947 -25.642212 0.000005 -12.185620 -0.000025 1.345373 -0.687285 14.325487 -0.544207 -1.839749 -8.070816 0.125760 1.208620 -11.880749 0.047661 0.746541 -7.305277 0.000000 -0.000001 -0.000001 -10.728325 -2.197516 -2.214051 7.245398 21.549494 1.379429 -9.088673 -9.684806 9.791945 -0.000002 -0.000001 -0.000000 4.023136 16.156025 -16.268875 -47.652539 49.007283 18.744182 -0.000012 54.576073 0.000006 17.581566 29.620492 -21.071974 -10.689769 17.918226 -0.438135 8.157658 -30.348860 -4.024817 -6.264811 -1.108766 -14.483696 0.000000 -0.000001 0.000003 0.202427 -3.679796 8.240548 0.044462 -0.642699 7.914971 0.044438 -0.642526 7.912838 -0.000000 0.000000 0.000000 -99.207815 7.394834 -2.408234 58.105430 7.823708 1.844276 11.106396 23.522224 5.848638 -4.486157 0.000011 0.000002 0.000000 0.000001 -0.000000 14.232828 -10.343235 5.332975 47.249596 -9.809037 8.927223 -21.160920 -28.101447 35.580262 -61.622233 -0.000007 -0.000003 -0.000000 -0.000001 0.000000 
-8.166035 59.533386 11.036968 30.223683 3.655116 3.033915 6.091683 7.616379 -10.851366 4.567771 5.384583 -8.200586 4.517031 5.549563 -8.228394 2.199206 -2.904452 1.094942 1.617137 -18.525334 20.503128 0.000000 0.000000 0.000000 0.399602 -1.588430 -30.002265 -18.310892 20.740276 -18.800967 -0.000011 -16.554275 -0.000001 0.047580 5.574700 12.847795 -0.246484 -0.332808 -6.517301 0.096396 1.059491 -10.396853 0.014124 0.406979 -3.974680 -0.000003 0.000003 0.000004 -12.549211 -0.363129 -4.078900 6.949721 19.465640 1.461152 -8.787329 -8.219466 10.476739 -0.000001 0.000001 0.000000 4.055502 17.107785 -15.784200 -47.918937 37.802741 17.720767 -0.000001 50.097416 -0.000003 20.694525 29.334628 -29.314171 -9.327208 14.694986 -1.732779 7.573076 -25.030864 -3.428419 -6.004242 -2.578850 -14.569159 0.000001 -0.000001 -0.000002 0.130232 -3.280990 6.291172 0.019733 -0.428733 5.270493 0.019715 -0.428548 5.268195 -0.000000 -0.000001 -0.000000 -101.745189 9.477132 -0.221040 62.278068 5.170560 1.869747 6.827338 22.955518 4.021727 -4.485865 0.000006 0.000001 -0.000000 0.000002 0.000000 10.542376 -11.068485 4.570416 48.040597 -13.069298 9.225145 -12.438994 -25.285102 37.200212 -61.810391 -0.000011 -0.000009 -0.000001 0.000000 0.000001 
-10.449297 59.837921 14.642879 32.353062 3.699634 3.701591 5.065931 5.835976 -10.866343 5.484351 5.992350 -9.720907 5.445343 6.131660 -9.717402 2.642323 -3.181822 1.276280 3.192426 -19.268817 20.133670 -0.000001 -0.000000 0.000000 0.459910 -2.053901 -34.801211 -19.721352 16.446889 -14.047641 -0.000001 -21.480124 0.000005 0.753793 10.925785 11.790582 -0.053635 1.001272 -5.164749 0.075961 0.941356 -9.226753 0.000907 0.102865 -1.003845 0.000002 0.000000 0.000001 -14.258859 1.512156 -5.850208 6.694517 17.684277 1.528826 -8.543359 -7.016314 11.047250 0.000000 0.000000 -0.000000 3.448168 17.035243 -12.253214 -48.446361 27.202289 16.294509 -0.000005 48.908560 0.000002 22.616351 26.584768 -37.132450 -8.215020 11.831910 -2.784509 7.049038 -20.356552 -2.868688 -5.781838 -3.872871 -14.638313 0.000001 0.000003 0.000003 0.084958 -2.927689 4.578022 0.006160 -0.239735 2.944209 0.006153 -0.239594 2.942406 0.000000 -0.000000 -0.000001 -102.519261 10.581975 3.221671 66.680391 2.621495 1.902868 1.795641 22.353218 2.302663 -4.486425 -0.000008 -0.000004 0.000000 -0.000003 -0.000000 3.749990 -12.305039 3.071989 53.964351 -17.364600 9.229665 -2.637160 -19.706984 32.882105 -63.188273 -1.523267 4.999428 0.000000 -0.000002 0.000001 
-12.803553 60.533226 18.522648 33.031816 3.604977 4.564532 4.160564 4.352436 -10.060793 6.154499 6.024885 -10.490105 6.136428 6.111971 -10.476413 2.748865 -3.278669 1.396586 4.362660 -18.889242 18.488371 0.000003 0.000001 0.000000 0.364963 -3.573344 -38.112036 -20.999862 12.032493 -11.439308 0.000007 -25.626824 0.000001 2.988254 14.767111 10.424030 0.048420 1.997028 -4.169697 0.066142 0.878812 -8.608770 0.001505 -0.132738 1.295392 0.000001 0.000002 0.000002 -15.793735 3.339361 -7.486406 6.515649 16.450849 1.581981 -8.395658 -6.289680 11.419780 0.000002 0.000002 0.000001 2.585236 16.038119 -7.493685 -47.841708 17.502273 14.448017 -0.000005 48.063389 0.000000 22.103867 23.592204 -42.525526 -7.433326 9.684694 -3.520588 6.649027 -16.878243 -2.429795 -5.619555 -4.836773 -14.686228 0.000000 0.000000 0.000003 0.062348 -2.663423 3.303001 0.001037 -0.098310 1.206890 0.001042 -0.098612 1.210626 -0.000001 0.000001 -0.000003 -100.662939 11.569111 6.811182 70.149963 -0.012861 1.900291 -3.521039 21.740419 0.551404 -4.487007 -0.000022 -0.000002 0.000000 -0.000000 0.000000 -8.524967 -14.844902 -0.240715 64.548027 -20.514401 7.903559 5.630002 -17.489306 20.114098 -57.733383 -13.597490 21.326238 -0.000001 -0.000002 0.000003 
-15.283166 61.850372 22.693718 33.060923 3.297634 5.072579 3.340912 3.200330 -8.366005 6.149918 5.402306 -10.367918 6.144308 5.429690 -10.362179 2.372070 -3.071020 1.170175 5.395070 -17.399244 16.964829 -0.000003 0.000000 0.000001 -0.070450 -6.238990 -39.846750 -22.674041 6.596521 -9.855731 -0.000000 -28.350462 0.000006 5.881679 16.994515 8.731565 0.089942 2.553774 -3.626902 0.066988 0.884385 -8.663717 0.006647 -0.279247 2.725972 -0.000000 0.000004 0.000002 -17.094237 5.019605 -8.941476 6.434907 15.905135 1.622021 -8.366079 -6.152467 11.549811 0.000001 -0.000000 0.000003 1.833260 14.468873 -3.038224 -44.831613 8.386185 12.766058 -0.000007 45.894681 0.000008 21.132006 22.299632 -45.602171 -7.025826 8.503352 -3.906175 6.424608 -14.972594 -2.181260 -5.530147 -5.365694 -14.711806 0.000001 -0.000000 -0.000000 0.053998 -2.518702 2.605140 0.000055 -0.021750 0.266995 0.000047 -0.021348 0.262043 0.000001 -0.000000 -0.000002 -96.632683 12.094311 10.648723 71.843563 -3.014105 1.757244 -8.665534 21.217178 -1.245160 -4.483432 0.000003 0.000007 0.000000 -0.000002 -0.000000 -24.416629 -16.807076 -6.841032 78.765195 -20.135229 5.953386 0.004546 -20.255571 8.462455 -39.273250 -20.571369 27.804542 -0.000000 0.000000 0.000001 
